<svg width="1440" height="315" viewBox="0 0 1440 315" fill="none" xmlns="http://www.w3.org/2000/svg">
<g clip-path="url(#clip0_8_80)">
<path d="M1438.8 282.574L1391.17 255.223C1343.54 228.272 1248.28 172.97 1152.72 139.967C1057.17 106.363 961.313 95.0567 864.891 125.447C768.46 156.437 671.461 229.123 575.393 233.516C479.329 237.509 384.209 172.208 288.726 133.604C193.248 94.6009 97.3932 83.295 49.4753 76.9421L1.55188 70.9891L2.85874 -25.002L50.8543 -24.3486C98.8498 -23.6951 194.841 -22.3883 290.832 -21.0814C386.823 -19.7745 482.814 -18.4677 578.805 -17.1608C674.796 -15.854 770.788 -14.5471 866.779 -13.2402C962.77 -11.9334 1058.76 -10.6265 1154.75 -9.31964C1250.74 -8.01278 1346.73 -6.70592 1394.73 -6.05249L1442.73 -5.39906L1438.8 282.574Z" fill="white"/>
</g>
<defs>
<clipPath id="clip0_8_80">
<rect width="1440" height="320" fill="white" transform="translate(1438.37 314.571) rotate(-179.22)"/>
</clipPath>
</defs>
</svg>
