<svg width="314" height="1024" viewBox="0 0 314 1024" fill="none" xmlns="http://www.w3.org/2000/svg">
<g clip-path="url(#clip0_8_28)">
<path d="M281.628 -51.6409L254.245 -4.02689C227.263 43.5928 171.898 138.812 138.831 234.35C105.164 329.879 93.7953 425.727 124.122 522.169C155.048 618.621 227.671 715.667 232 811.739C235.929 907.805 170.566 1002.88 131.899 1098.34C92.8329 1193.79 81.4637 1289.64 75.0792 1337.55L69.0946 1385.47L-26.8956 1384.1L-26.2105 1336.11C-25.5254 1288.11 -24.1552 1192.12 -22.785 1096.13C-21.4149 1000.14 -20.0447 904.151 -18.6745 808.161C-17.3043 712.17 -15.9342 616.18 -14.564 520.19C-13.1938 424.2 -11.8236 328.209 -10.4535 232.219C-9.0833 136.229 -7.71312 40.2388 -7.02803 -7.75634L-6.34295 -55.7514L281.628 -51.6409Z" fill="white"/>
</g>
<defs>
<clipPath id="clip0_8_28">
<rect width="1440" height="320" fill="white" transform="translate(313.624 -51.1842) rotate(90.8178)"/>
</clipPath>
</defs>
</svg>
